<svg xmlns="http://www.w3.org/2000/svg" xmlns:xlink="http://www.w3.org/1999/xlink" version="1.1" x="0px" y="0px" width="1.2rem" height="1.2rem" viewBox="0 0 110 110" style="enable-background:new 0 0 100 100;" xml:space="preserve"><g><path d="M88,19H34.8c-0.6,0-1.2,0.3-1.6,0.8l-22.8,29c-0.6,0.7-0.6,1.7,0,2.5l22.8,29c0.4,0.5,1,0.8,1.6,0.8H88c1.1,0,2-0.9,2-2V21   C90,19.9,89.1,19,88,19z M86,77H35.8L14.5,50l21.2-27H86V77z"/><path d="M43.6,64.4C44,64.8,44.5,65,45,65s1-0.2,1.4-0.6L58,52.8l11.6,11.6C70,64.8,70.5,65,71,65s1-0.2,1.4-0.6   c0.8-0.8,0.8-2,0-2.8L60.8,50l11.6-11.6c0.8-0.8,0.8-2,0-2.8c-0.8-0.8-2-0.8-2.8,0L58,47.2L46.4,35.6c-0.8-0.8-2-0.8-2.8,0   c-0.8,0.8-0.8,2,0,2.8L55.2,50L43.6,61.6C42.8,62.4,42.8,63.6,43.6,64.4z"/></g></svg>